<svg width="51" height="50" viewBox="0 0 51 50" fill="none" xmlns="http://www.w3.org/2000/svg">
<path d="M50.0743 30.0751C49.9455 29.6597 49.6862 29.2968 49.335 29.0401C48.9838 28.7835 48.5593 28.6467 48.1243 28.6501L47.5743 28.7501C43.9935 29.7385 40.2146 29.7593 36.623 28.8105C33.0315 27.8616 29.756 25.9771 27.1305 23.3491C24.5051 20.7211 22.6237 17.4438 21.6784 13.8513C20.733 10.2589 20.7575 6.48001 21.7493 2.90013C21.7983 2.75513 21.8237 2.60319 21.8243 2.45013C21.8481 2.1275 21.7922 1.80397 21.6617 1.50798C21.5311 1.21199 21.3298 0.952602 21.0755 0.752623C20.8212 0.552643 20.5217 0.418193 20.2033 0.361089C19.8848 0.303986 19.5573 0.325978 19.2493 0.425133C15.0464 1.60319 11.2251 3.86115 8.16559 6.9744C5.10611 10.0877 2.91507 13.9477 1.81041 18.1706C0.705755 22.3934 0.725988 26.8319 1.8691 31.0445C3.01221 35.2571 5.23835 39.097 8.32608 42.1823C11.4138 45.2675 15.2555 47.4905 19.4691 48.6302C23.6826 49.7699 28.1211 49.7865 32.3431 48.6784C36.565 47.5704 40.4233 45.3762 43.534 42.3142C46.6448 39.2522 48.8997 35.4291 50.0743 31.2251C50.2001 30.8521 50.2001 30.4482 50.0743 30.0751V30.0751Z" fill="#FEFEFE"/>
</svg>
