<svg width="22" height="22" viewBox="0 0 22 22" fill="none" xmlns="http://www.w3.org/2000/svg">
<path d="M18.64 10.25C18.71 10.66 18.75 11.07 18.75 11.5C18.75 15.91 15.16 19.5 10.75 19.5C6.34 19.5 2.75 15.91 2.75 11.5C2.75 11.45 2.76 11.4 2.75 11.36C5.35 10.38 7.44 8.37 8.49 5.81C11.87 9.95 16.46 9.54 17.48 9.42L16.59 7.49C16.46 7.5 11.97 7.87 9.41 3.63C10.42 3.47 11.12 3.48 12 3.62C14.52 2.47 13.93 2.73 14.76 2.36C13.53 1.8 12.18 1.5 10.75 1.5C5.23 1.5 0.75 5.98 0.75 11.5C0.75 17.02 5.23 21.5 10.75 21.5C16.27 21.5 20.75 17.02 20.75 11.5C20.75 10.07 20.45 8.72 19.91 7.49L18.64 10.25ZM6.83 4.53C6.2 6.42 4.88 8 3.17 8.97C3.8 7.08 5.12 5.5 6.83 4.53Z" fill="#7D7D7D"/>
<path d="M13.75 13.75C14.4404 13.75 15 13.1904 15 12.5C15 11.8096 14.4404 11.25 13.75 11.25C13.0596 11.25 12.5 11.8096 12.5 12.5C12.5 13.1904 13.0596 13.75 13.75 13.75Z" fill="#7D7D7D"/>
<path d="M7.75 13.75C8.44036 13.75 9 13.1904 9 12.5C9 11.8096 8.44036 11.25 7.75 11.25C7.05964 11.25 6.5 11.8096 6.5 12.5C6.5 13.1904 7.05964 13.75 7.75 13.75Z" fill="#7D7D7D"/>
<path d="M21.75 4L19.35 2.9L18.25 0.5L17.15 2.9L14.75 4L17.15 5.1L18.25 7.5L19.35 5.1L21.75 4Z" fill="#7D7D7D"/>
</svg>
