<svg width="42" height="42" viewBox="0 0 42 42" fill="none" xmlns="http://www.w3.org/2000/svg">
<g clip-path="url(#clip0_832_9667)">
<path d="M21 -0.0305176C16.8406 -0.0305176 12.7745 1.2029 9.31608 3.51376C5.85763 5.82463 3.1621 9.10915 1.57035 12.952C-0.0214054 16.7948 -0.43788 21.0233 0.373588 25.1029C1.18505 29.1824 3.18802 32.9297 6.12919 35.8708C9.07036 38.812 12.8176 40.815 16.8972 41.6264C20.9767 42.4379 25.2052 42.0214 29.048 40.4297C32.8909 38.8379 36.1754 36.1424 38.4863 32.6839C40.7971 29.2255 42.0305 25.1595 42.0305 21C42.0198 15.4256 39.8007 10.0827 35.859 6.14099C31.9174 2.19931 26.5744 -0.0198285 21 -0.0305176ZM13.7202 14.5291C14.2002 14.5291 14.6693 14.6714 15.0684 14.938C15.4674 15.2047 15.7784 15.5837 15.9621 16.0271C16.1458 16.4705 16.1938 16.9584 16.1002 17.4291C16.0066 17.8998 15.7754 18.3322 15.4361 18.6715C15.0967 19.0109 14.6643 19.242 14.1936 19.3356C13.7229 19.4293 13.235 19.3812 12.7916 19.1976C12.3482 19.0139 11.9692 18.7029 11.7026 18.3038C11.4359 17.9048 11.2936 17.4356 11.2936 16.9557C11.2936 16.3121 11.5493 15.6949 12.0044 15.2398C12.4594 14.7847 13.0766 14.5291 13.7202 14.5291ZM29.0887 29.0887H12.9114C12.4823 29.0887 12.0708 28.9182 11.7674 28.6148C11.4641 28.3115 11.2936 27.9 11.2936 27.4709C11.2936 27.0419 11.4641 26.6304 11.7674 26.327C12.0708 26.0236 12.4823 25.8532 12.9114 25.8532H29.0887C29.5177 25.8532 29.9292 26.0236 30.2326 26.327C30.536 26.6304 30.7064 27.0419 30.7064 27.4709C30.7064 27.9 30.536 28.3115 30.2326 28.6148C29.9292 28.9182 29.5177 29.0887 29.0887 29.0887ZM28.2798 19.3823C27.7999 19.3823 27.3307 19.24 26.9317 18.9733C26.5326 18.7067 26.2216 18.3277 26.0379 17.8843C25.8543 17.4409 25.8062 16.953 25.8998 16.4823C25.9935 16.0116 26.2246 15.5792 26.5639 15.2398C26.9033 14.9004 27.3357 14.6693 27.8064 14.5757C28.2771 14.4821 28.765 14.5301 29.2084 14.7138C29.6518 14.8975 30.0308 15.2085 30.2975 15.6075C30.5641 16.0066 30.7064 16.4757 30.7064 16.9557C30.7064 17.5992 30.4508 18.2165 29.9957 18.6715C29.5406 19.1266 28.9234 19.3823 28.2798 19.3823Z" fill="url(#paint0_linear_832_9667)"/>
</g>
<defs>
<linearGradient id="paint0_linear_832_9667" x1="21" y1="-0.0305176" x2="21" y2="42.0305" gradientUnits="userSpaceOnUse">
<stop stop-color="#355449"/>
<stop offset="1" stop-color="#1D352C"/>
</linearGradient>
<clipPath id="clip0_832_9667">
<rect width="42" height="42" fill="white"/>
</clipPath>
</defs>
</svg>
