<svg width="32" height="32" viewBox="0 0 32 32" fill="none" xmlns="http://www.w3.org/2000/svg">
<rect width="32" height="32" rx="8" fill="url(#paint0_linear_1485_4683)"/>
<path d="M17.2502 28C13.9902 28 11.0602 26.01 9.85022 22.98L6.82022 15.37C6.51022 14.58 7.25022 13.79 8.06022 14.05L8.85022 14.31C9.41022 14.49 9.87022 14.92 10.0902 15.47L11.5002 19H12.2502V7.25C12.2502 6.56 12.8102 6 13.5002 6C14.1902 6 14.7502 6.56 14.7502 7.25V16H15.7502V5.25C15.7502 4.56 16.3102 4 17.0002 4C17.6902 4 18.2502 4.56 18.2502 5.25V16H19.2502V6.75C19.2502 6.06 19.8102 5.5 20.5002 5.5C21.1902 5.5 21.7502 6.06 21.7502 6.75V16H22.7502V9.75C22.7502 9.06 23.3102 8.5 24.0002 8.5C24.6902 8.5 25.2502 9.06 25.2502 9.75V20C25.2502 24.42 21.6702 28 17.2502 28Z" fill="#FEFEFE"/>
<defs>
<linearGradient id="paint0_linear_1485_4683" x1="16" y1="0" x2="16" y2="32" gradientUnits="userSpaceOnUse">
<stop stop-color="#FF6363"/>
<stop offset="1" stop-color="#C73B3B"/>
</linearGradient>
</defs>
</svg>
