<svg width="24" height="24" viewBox="0 0 24 24" fill="none" xmlns="http://www.w3.org/2000/svg">
<path d="M12 0.625C9.75024 0.625 7.551 1.29213 5.68039 2.54203C3.80978 3.79193 2.35182 5.56847 1.49088 7.64698C0.629929 9.72548 0.404666 12.0126 0.843573 14.2192C1.28248 16.4257 2.36584 18.4525 3.95667 20.0433C5.54749 21.6342 7.57432 22.7175 9.78085 23.1564C11.9874 23.5953 14.2745 23.3701 16.353 22.5091C18.4315 21.6482 20.2081 20.1902 21.458 18.3196C22.7079 16.449 23.375 14.2498 23.375 12C23.3692 8.98494 22.1689 6.09502 20.037 3.96305C17.905 1.83107 15.0151 0.630782 12 0.625ZM17.4141 10.0094L11.0047 16.1344C10.839 16.2902 10.6197 16.3764 10.3922 16.375C10.281 16.3766 10.1706 16.3561 10.0673 16.3148C9.9641 16.2735 9.87005 16.2122 9.79063 16.1344L6.58594 13.0719C6.49706 12.9943 6.42477 12.8996 6.37342 12.7934C6.32208 12.6872 6.29274 12.5717 6.28716 12.4539C6.28159 12.3361 6.29989 12.2183 6.34098 12.1077C6.38207 11.9972 6.44509 11.8961 6.52626 11.8105C6.60743 11.7249 6.70507 11.6566 6.8133 11.6097C6.92154 11.5628 7.03814 11.5382 7.1561 11.5376C7.27406 11.5369 7.39094 11.56 7.49971 11.6057C7.60849 11.6513 7.70691 11.7185 7.78907 11.8031L10.3922 14.2859L16.2109 8.74062C16.3811 8.59219 16.602 8.51527 16.8275 8.52594C17.0531 8.53661 17.2657 8.63405 17.4211 8.79788C17.5765 8.96171 17.6625 9.17926 17.6612 9.40504C17.6599 9.63082 17.5713 9.84736 17.4141 10.0094Z" fill="#232423"/>
</svg>
