<svg width="20" height="26" viewBox="0 0 20 26" fill="none" xmlns="http://www.w3.org/2000/svg">
<path d="M16.9998 8.91667H15.8332L15.8332 6.58333C15.8332 3.36333 13.2198 0.75 9.99984 0.75C6.77984 0.75 4.1665 3.36333 4.1665 6.58333L6.49984 6.58333C6.49984 4.64667 8.06317 3.08333 9.99984 3.08333C11.9365 3.08333 13.4998 4.64667 13.4998 6.58333L13.4998 8.91667L2.99984 8.91667C1.7165 8.91667 0.666504 9.96667 0.666504 11.25L0.666504 22.9167C0.666504 24.2 1.7165 25.25 2.99984 25.25L16.9998 25.25C18.2832 25.25 19.3332 24.2 19.3332 22.9167L19.3332 11.25C19.3332 9.96667 18.2832 8.91667 16.9998 8.91667ZM16.9998 22.9167L2.99984 22.9167L2.99984 11.25L16.9998 11.25L16.9998 22.9167ZM9.99984 19.4167C11.2832 19.4167 12.3332 18.3667 12.3332 17.0833C12.3332 15.8 11.2832 14.75 9.99984 14.75C8.7165 14.75 7.6665 15.8 7.6665 17.0833C7.6665 18.3667 8.7165 19.4167 9.99984 19.4167Z" fill="#CACACA"/>
</svg>
