<svg width="44" height="42" viewBox="0 0 44 42" fill="none" xmlns="http://www.w3.org/2000/svg">
<g clip-path="url(#clip0_832_9655)">
<path d="M22 -0.0305176C17.7415 -0.0305176 13.5787 1.2029 10.0379 3.51376C6.49709 5.82463 3.73738 9.10915 2.10773 12.952C0.478079 16.7948 0.0516886 21.0233 0.882477 25.1029C1.71326 29.1824 3.76392 32.9297 6.77512 35.8708C9.78632 38.812 13.6228 40.815 17.7995 41.6264C21.9761 42.4379 26.3053 42.0214 30.2397 40.4297C34.174 38.8379 37.5367 36.1424 39.9026 32.6839C42.2685 29.2255 43.5313 25.1595 43.5313 21C43.5203 15.4256 41.2483 10.0827 37.2128 6.14099C33.1773 2.19931 27.7071 -0.0198285 22 -0.0305176ZM29.4531 14.5291C29.9445 14.5291 30.4248 14.6714 30.8334 14.938C31.2419 15.2047 31.5604 15.5837 31.7484 16.0271C31.9364 16.4705 31.9856 16.9584 31.8898 17.4291C31.7939 17.8998 31.5573 18.3322 31.2099 18.6715C30.8624 19.0109 30.4197 19.242 29.9378 19.3356C29.4559 19.4293 28.9564 19.3812 28.5024 19.1976C28.0484 19.0139 27.6604 18.7029 27.3875 18.3038C27.1145 17.9048 26.9688 17.4356 26.9688 16.9557C26.9688 16.3121 27.2305 15.6949 27.6964 15.2398C28.1623 14.7847 28.7942 14.5291 29.4531 14.5291ZM14.5469 14.5291C15.0382 14.5291 15.5186 14.6714 15.9271 14.938C16.3357 15.2047 16.6541 15.5837 16.8421 16.0271C17.0302 16.4705 17.0794 16.9584 16.9835 17.4291C16.8877 17.8998 16.651 18.3322 16.3036 18.6715C15.9562 19.0109 15.5135 19.242 15.0316 19.3356C14.5496 19.4293 14.0501 19.3812 13.5962 19.1976C13.1422 19.0139 12.7542 18.7029 12.4812 18.3038C12.2082 17.9048 12.0625 17.4356 12.0625 16.9557C12.0625 16.3121 12.3243 15.6949 12.7902 15.2398C13.2561 14.7847 13.888 14.5291 14.5469 14.5291ZM32.041 26.6621C31.0235 28.3838 29.5599 29.8136 27.7973 30.8076C26.0348 31.8017 24.0353 32.325 22 32.325C19.9647 32.325 17.9653 31.8017 16.2027 30.8076C14.4401 29.8136 12.9765 28.3838 11.959 26.6621C11.8294 26.4784 11.74 26.2705 11.6966 26.0515C11.6532 25.8325 11.6566 25.6071 11.7067 25.3894C11.7567 25.1717 11.8523 24.9665 11.9875 24.7867C12.1226 24.6069 12.2944 24.4563 12.492 24.3444C12.6896 24.2325 12.9088 24.1617 13.1357 24.1366C13.3626 24.1114 13.5924 24.1323 13.8107 24.198C14.029 24.2638 14.2309 24.3729 14.4039 24.5185C14.577 24.6642 14.7173 24.8432 14.816 25.0443C15.5454 26.2744 16.5931 27.2956 17.854 28.0055C19.1149 28.7154 20.5446 29.0891 22 29.0891C23.4554 29.0891 24.8852 28.7154 26.146 28.0055C27.4069 27.2956 28.4546 26.2744 29.184 25.0443C29.4206 24.7091 29.7779 24.4733 30.1847 24.3841C30.5914 24.2948 31.0177 24.3587 31.3783 24.5629C31.739 24.7671 32.0075 25.0967 32.1304 25.4858C32.2532 25.8749 32.2213 26.2949 32.041 26.6621Z" fill="url(#paint0_linear_832_9655)"/>
</g>
<defs>
<linearGradient id="paint0_linear_832_9655" x1="22" y1="-0.0305176" x2="22" y2="42.0305" gradientUnits="userSpaceOnUse">
<stop stop-color="#FFD363"/>
<stop offset="1" stop-color="#EFB41C"/>
</linearGradient>
<clipPath id="clip0_832_9655">
<rect width="43" height="42" fill="white" transform="translate(0.5)"/>
</clipPath>
</defs>
</svg>
