<svg width="350" height="196" viewBox="0 0 350 196" fill="none" xmlns="http://www.w3.org/2000/svg">
<g clip-path="url(#clip0_883_7293)">
<rect width="350" height="196" fill="url(#paint0_linear_883_7293)"/>
<path d="M213.104 162.75H254.771C254.771 174.208 245.396 183.583 233.938 183.583C222.479 183.583 213.104 174.208 213.104 162.75ZM192.271 152.333H275.604V131.5H192.271V152.333ZM312.063 53.375C312.063 93.1667 284.354 114.417 272.792 121.083H195.083C183.521 114.417 155.812 93.1667 155.812 53.375C155.812 10.25 190.813 -24.75 233.938 -24.75C277.063 -24.75 312.063 10.25 312.063 53.375ZM291.229 53.375C291.229 21.8125 265.5 -3.91665 233.938 -3.91665C202.375 -3.91665 176.646 21.8125 176.646 53.375C176.646 79.1042 192.167 93.8959 201.125 100.25H266.75C275.708 93.8959 291.229 79.1042 291.229 53.375ZM362.792 31.1875L348.521 37.75L362.792 44.3125L369.354 58.5834L375.917 44.3125L390.188 37.75L375.917 31.1875L369.354 16.9167L362.792 31.1875ZM338.104 16.9167L347.896 -4.54164L369.354 -14.3333L347.896 -24.125L338.104 -45.5833L328.312 -24.125L306.854 -14.3333L328.312 -4.54164L338.104 16.9167Z" fill="url(#paint1_linear_883_7293)"/>
</g>
<defs>
<linearGradient id="paint0_linear_883_7293" x1="175" y1="0" x2="175" y2="196" gradientUnits="userSpaceOnUse">
<stop stop-color="#355449"/>
<stop offset="1" stop-color="#1D352C"/>
</linearGradient>
<linearGradient id="paint1_linear_883_7293" x1="273" y1="-45.5833" x2="273" y2="183.583" gradientUnits="userSpaceOnUse">
<stop stop-color="#324F44"/>
<stop offset="1" stop-color="#1C3129"/>
</linearGradient>
<clipPath id="clip0_883_7293">
<rect width="350" height="196" fill="white"/>
</clipPath>
</defs>
</svg>
