<svg width="45" height="44" viewBox="0 0 45 44" fill="none" xmlns="http://www.w3.org/2000/svg">
<rect x="0.5" width="44" height="44" rx="22" fill="#F0F0F0"/>
<path d="M17.2602 15.3408L15.4602 13.5508L14.0502 14.9608L15.8402 16.7508L17.2602 15.3408ZM14.5002 21.0008H11.5002V23.0008H14.5002V21.0008ZM23.5002 11.0508H21.5002V14.0008H23.5002V11.0508ZM30.9502 14.9608L29.5402 13.5508L27.7502 15.3408L29.1602 16.7508L30.9502 14.9608ZM27.7402 28.6608L29.5302 30.4608L30.9402 29.0508L29.1402 27.2608L27.7402 28.6608ZM30.5002 21.0008V23.0008H33.5002V21.0008H30.5002ZM22.5002 16.0008C19.1902 16.0008 16.5002 18.6908 16.5002 22.0008C16.5002 25.3108 19.1902 28.0008 22.5002 28.0008C25.8102 28.0008 28.5002 25.3108 28.5002 22.0008C28.5002 18.6908 25.8102 16.0008 22.5002 16.0008ZM21.5002 32.9508H23.5002V30.0008H21.5002V32.9508ZM14.0502 29.0408L15.4602 30.4508L17.2502 28.6508L15.8402 27.2408L14.0502 29.0408Z" fill="url(#paint0_linear_1120_11821)"/>
<defs>
<linearGradient id="paint0_linear_1120_11821" x1="22.5002" y1="11.0508" x2="22.5002" y2="32.9508" gradientUnits="userSpaceOnUse">
<stop stop-color="#FFA15C"/>
<stop offset="1" stop-color="#F26906"/>
</linearGradient>
</defs>
</svg>
