<svg width="32" height="32" viewBox="0 0 32 32" fill="none" xmlns="http://www.w3.org/2000/svg">
<rect width="32" height="32" rx="8" fill="#CACACA"/>
<path d="M25.0282 18.0906C24.9799 17.9348 24.8826 17.7987 24.7509 17.7025C24.6192 17.6062 24.46 17.555 24.2969 17.5562L24.0907 17.5937C22.7479 17.9644 21.3308 17.9722 19.9839 17.6164C18.6371 17.2606 17.4088 16.5539 16.4243 15.5684C15.4397 14.5829 14.7342 13.3539 14.3797 12.0067C14.0252 10.6595 14.0344 9.24244 14.4063 7.89999C14.4247 7.84561 14.4342 7.78863 14.4344 7.73124C14.4433 7.61025 14.4224 7.48893 14.3734 7.37793C14.3245 7.26693 14.249 7.16966 14.1536 7.09467C14.0583 7.01968 13.9459 6.96926 13.8265 6.94785C13.7071 6.92643 13.5843 6.93468 13.4688 6.97186C11.8927 7.41364 10.4597 8.26037 9.3124 9.42784C8.1651 10.5953 7.34346 12.0428 6.92921 13.6264C6.51496 15.21 6.52255 16.8744 6.95122 18.4541C7.37988 20.0339 8.21469 21.4738 9.37259 22.6308C10.5305 23.7877 11.9711 24.6214 13.5512 25.0488C15.1313 25.4761 16.7957 25.4824 18.379 25.0669C19.9622 24.6513 21.409 23.8285 22.5756 22.6803C23.7421 21.532 24.5877 20.0983 25.0282 18.5219C25.0753 18.382 25.0753 18.2305 25.0282 18.0906Z" fill="#7D7D7D"/>
</svg>
