<svg width="44" height="44" viewBox="0 0 44 44" fill="none" xmlns="http://www.w3.org/2000/svg">
<rect width="44" height="44" rx="22" fill="#F0F0F0"/>
<path d="M21.0628 32.4963L26.5094 26.2086C26.8738 25.7887 27.0806 25.2098 27.0806 24.6083V13.2699C27.0806 12.0215 26.1942 11 25.1108 11H16.2563C15.4684 11 14.7593 11.5448 14.4539 12.3733L11.2431 21.0104C10.4059 23.2577 11.834 25.7546 13.9516 25.7546H19.5164L18.5808 30.9528C18.4823 31.5203 18.63 32.0991 18.9846 32.5077C19.5657 33.166 20.4915 33.166 21.0628 32.4963ZM31.0302 11C29.9467 11 29.0603 12.0215 29.0603 13.2699V22.3497C29.0603 23.5982 29.9467 24.6196 31.0302 24.6196C32.1136 24.6196 33 23.5982 33 22.3497V13.2699C33 12.0215 32.1136 11 31.0302 11Z" fill="#355449"/>
</svg>
