<svg width="16" height="17" viewBox="0 0 16 17" fill="none" xmlns="http://www.w3.org/2000/svg">
<path d="M8.63273 2.33453L4.9394 6.02787C4.69273 6.27454 4.55273 6.61454 4.55273 6.96787V13.6279C4.55273 14.3612 5.15273 14.9612 5.88607 14.9612H11.8861C12.4194 14.9612 12.8994 14.6412 13.1127 14.1545L15.2861 9.0812C15.8461 7.7612 14.8794 6.29454 13.4461 6.29454H9.6794L10.3127 3.2412C10.3794 2.90787 10.2794 2.56787 10.0394 2.32787C9.64607 1.9412 9.0194 1.9412 8.63273 2.33453ZM1.88607 14.9612C2.6194 14.9612 3.2194 14.3612 3.2194 13.6279V8.29453C3.2194 7.5612 2.6194 6.9612 1.88607 6.9612C1.15273 6.9612 0.552734 7.5612 0.552734 8.29453V13.6279C0.552734 14.3612 1.15273 14.9612 1.88607 14.9612Z" fill="#355449"/>
</svg>
