<svg width="42" height="42" viewBox="0 0 42 42" fill="none" xmlns="http://www.w3.org/2000/svg">
<g clip-path="url(#clip0_832_9643)">
<path d="M21 -0.0305176C16.8406 -0.0305176 12.7745 1.2029 9.31608 3.51376C5.85763 5.82463 3.1621 9.10915 1.57035 12.952C-0.0214054 16.7948 -0.43788 21.0233 0.373588 25.1029C1.18505 29.1824 3.18802 32.9297 6.12919 35.8708C9.07036 38.812 12.8176 40.815 16.8972 41.6264C20.9767 42.4379 25.2052 42.0214 29.048 40.4297C32.8909 38.8379 36.1754 36.1424 38.4863 32.6839C40.7971 29.2255 42.0305 25.1595 42.0305 21C42.0198 15.4256 39.8007 10.0827 35.859 6.14099C31.9174 2.19931 26.5744 -0.0198285 21 -0.0305176ZM13.7202 14.5291C14.2002 14.5291 14.6693 14.6714 15.0684 14.938C15.4674 15.2047 15.7784 15.5837 15.9621 16.0271C16.1458 16.4705 16.1938 16.9584 16.1002 17.4291C16.0066 17.8998 15.7754 18.3322 15.4361 18.6715C15.0967 19.0109 14.6643 19.242 14.1936 19.3356C13.7229 19.4293 13.235 19.3812 12.7916 19.1976C12.3482 19.0139 11.9692 18.7029 11.7026 18.3038C11.4359 17.9048 11.2936 17.4356 11.2936 16.9557C11.2936 16.3121 11.5493 15.6949 12.0044 15.2398C12.4594 14.7847 13.0766 14.5291 13.7202 14.5291ZM30.8075 26.6621C29.8137 28.3838 28.3841 29.8136 26.6625 30.8076C24.9409 31.8017 22.988 32.325 21 32.325C19.012 32.325 17.0591 31.8017 15.3375 30.8076C13.6159 29.8136 12.1863 28.3838 11.1925 26.6621C11.0659 26.4784 10.9787 26.2705 10.9362 26.0515C10.8938 25.8325 10.8972 25.6071 10.9461 25.3894C10.995 25.1717 11.0883 24.9665 11.2203 24.7867C11.3524 24.6069 11.5201 24.4563 11.7131 24.3444C11.9061 24.2325 12.1202 24.1617 12.3418 24.1366C12.5635 24.1114 12.788 24.1323 13.0012 24.198C13.2143 24.2638 13.4116 24.3729 13.5806 24.5185C13.7496 24.6642 13.8866 24.8432 13.9831 25.0443C14.6956 26.2744 15.7188 27.2956 16.9504 28.0055C18.182 28.7154 19.5785 29.0891 21 29.0891C22.4215 29.0891 23.8181 28.7154 25.0496 28.0055C26.2812 27.2956 27.3045 26.2744 28.0169 25.0443C28.248 24.7091 28.597 24.4733 28.9943 24.3841C29.3916 24.2948 29.808 24.3587 30.1602 24.5629C30.5125 24.7671 30.7748 25.0967 30.8948 25.4858C31.0148 25.8749 30.9836 26.2949 30.8075 26.6621ZM31.5153 18.5734H25.0443C24.6153 18.5734 24.2038 18.403 23.9004 18.0996C23.5971 17.7962 23.4266 17.3847 23.4266 16.9557C23.4266 16.5266 23.5971 16.1151 23.9004 15.8118C24.2038 15.5084 24.6153 15.3379 25.0443 15.3379H31.5153C31.9443 15.3379 32.3558 15.5084 32.6592 15.8118C32.9626 16.1151 33.133 16.5266 33.133 16.9557C33.133 17.3847 32.9626 17.7962 32.6592 18.0996C32.3558 18.403 31.9443 18.5734 31.5153 18.5734Z" fill="url(#paint0_linear_832_9643)"/>
</g>
<defs>
<linearGradient id="paint0_linear_832_9643" x1="21" y1="-0.0305176" x2="21" y2="42.0305" gradientUnits="userSpaceOnUse">
<stop stop-color="#FF9649"/>
<stop offset="1" stop-color="#F36A07"/>
</linearGradient>
<clipPath id="clip0_832_9643">
<rect width="42" height="42" fill="white"/>
</clipPath>
</defs>
</svg>
