<svg width="44" height="44" viewBox="0 0 44 44" fill="none" xmlns="http://www.w3.org/2000/svg">
<rect width="44" height="44" rx="22" fill="#F0F0F0"/>
<g clip-path="url(#clip0_1120_11782)">
<path d="M22.0001 9.98242C19.6233 9.98242 17.2998 10.6872 15.3236 12.0077C13.3473 13.3282 11.807 15.2051 10.8974 17.401C9.98787 19.5969 9.74989 22.0132 10.2136 24.3443C10.6773 26.6755 11.8218 28.8168 13.5025 30.4975C15.1832 32.1781 17.3245 33.3227 19.6556 33.7864C21.9868 34.2501 24.4031 34.0121 26.599 33.1025C28.7949 32.193 30.6718 30.6527 31.9923 28.6764C33.3127 26.7001 34.0176 24.3767 34.0176 21.9999C34.0114 18.8145 32.7434 15.7614 30.491 13.509C28.2386 11.2566 25.1855 9.98853 22.0001 9.98242ZM26.16 18.3022C26.4342 18.3022 26.7023 18.3835 26.9304 18.5359C27.1584 18.6882 27.3361 18.9048 27.4411 19.1582C27.546 19.4116 27.5735 19.6904 27.52 19.9593C27.4665 20.2283 27.3344 20.4754 27.1405 20.6693C26.9466 20.8632 26.6995 20.9953 26.4305 21.0488C26.1615 21.1023 25.8827 21.0748 25.6294 20.9699C25.376 20.8649 25.1594 20.6872 25.0071 20.4592C24.8547 20.2312 24.7734 19.9631 24.7734 19.6888C24.7734 19.3211 24.9195 18.9684 25.1795 18.7083C25.4395 18.4483 25.7922 18.3022 26.16 18.3022ZM17.8402 18.3022C18.1145 18.3022 18.3826 18.3835 18.6106 18.5359C18.8386 18.6882 19.0164 18.9048 19.1213 19.1582C19.2263 19.4116 19.2537 19.6904 19.2002 19.9593C19.1467 20.2283 19.0146 20.4754 18.8207 20.6693C18.6268 20.8632 18.3797 20.9953 18.1107 21.0488C17.8418 21.1023 17.563 21.0748 17.3096 20.9699C17.0562 20.8649 16.8397 20.6872 16.6873 20.4592C16.5349 20.2312 16.4536 19.9631 16.4536 19.6888C16.4536 19.3211 16.5997 18.9684 16.8597 18.7083C17.1198 18.4483 17.4725 18.3022 17.8402 18.3022ZM27.6044 25.2353C27.0365 26.2192 26.2196 27.0362 25.2358 27.6042C24.2521 28.1723 23.1361 28.4713 22.0001 28.4713C20.8641 28.4713 19.7482 28.1723 18.7644 27.6042C17.7806 27.0362 16.9637 26.2192 16.3958 25.2353C16.3235 25.1304 16.2736 25.0116 16.2494 24.8864C16.2251 24.7613 16.2271 24.6325 16.255 24.5081C16.2829 24.3837 16.3363 24.2665 16.4117 24.1637C16.4872 24.0609 16.583 23.9749 16.6933 23.9109C16.8036 23.847 16.9259 23.8066 17.0526 23.7922C17.1792 23.7778 17.3075 23.7898 17.4293 23.8273C17.5512 23.8649 17.6639 23.9272 17.7604 24.0105C17.857 24.0937 17.9353 24.196 17.9904 24.3109C18.3976 25.0138 18.9823 25.5974 19.686 26.003C20.3898 26.4087 21.1878 26.6222 22.0001 26.6222C22.8124 26.6222 23.6104 26.4087 24.3142 26.003C25.0179 25.5974 25.6027 25.0138 26.0098 24.3109C26.1418 24.1193 26.3413 23.9846 26.5683 23.9336C26.7953 23.8826 27.0332 23.9191 27.2345 24.0358C27.4358 24.1525 27.5857 24.3408 27.6543 24.5632C27.7228 24.7855 27.705 25.0255 27.6044 25.2353Z" fill="url(#paint0_linear_1120_11782)"/>
</g>
<defs>
<linearGradient id="paint0_linear_1120_11782" x1="22.0001" y1="9.98242" x2="22.0001" y2="34.0173" gradientUnits="userSpaceOnUse">
<stop stop-color="#FFD363"/>
<stop offset="1" stop-color="#EFB41C"/>
</linearGradient>
<clipPath id="clip0_1120_11782">
<rect width="24" height="24" fill="white" transform="translate(10 10)"/>
</clipPath>
</defs>
</svg>
