<svg width="43" height="42" viewBox="0 0 43 42" fill="none" xmlns="http://www.w3.org/2000/svg">
<g clip-path="url(#clip0_832_9691)">
<path d="M21.5 -0.0305176C17.2415 -0.0305176 13.0787 1.2029 9.53789 3.51376C5.99709 5.82463 3.23738 9.10915 1.60773 12.952C-0.0219208 16.7948 -0.448311 21.0233 0.382477 25.1029C1.21326 29.1824 3.26392 32.9297 6.27512 35.8708C9.28632 38.812 13.1228 40.815 17.2995 41.6264C21.4761 42.4379 25.8053 42.0214 29.7397 40.4297C33.674 38.8379 37.0367 36.1424 39.4026 32.6839C41.7685 29.2255 43.0313 25.1595 43.0313 21C43.0203 15.4256 40.7483 10.0827 36.7128 6.14099C32.6773 2.19931 27.2071 -0.0198285 21.5 -0.0305176ZM17.7113 19.8474C18.0223 20.1541 18.1968 20.5683 18.1968 21C18.1968 21.4317 18.0223 21.8459 17.7113 22.1526C17.3948 22.4516 16.9716 22.6188 16.5313 22.6188C16.0909 22.6188 15.6678 22.4516 15.3512 22.1526L13.2188 20.0496L11.0863 22.1526C10.7698 22.4516 10.3466 22.6188 9.90626 22.6188C9.46589 22.6188 9.04276 22.4516 8.72618 22.1526C8.41517 21.8459 8.24069 21.4317 8.24069 21C8.24069 20.5683 8.41517 20.1541 8.72618 19.8474L10.8793 17.7645L8.72618 15.6817C8.46207 15.3674 8.3271 14.9684 8.34752 14.5622C8.36794 14.1561 8.5423 13.7719 8.83667 13.4844C9.13104 13.1968 9.52439 13.0265 9.94019 13.0066C10.356 12.9866 10.7645 13.1185 11.0863 13.3764L13.2188 15.4795L15.3512 13.3764C15.673 13.1185 16.0815 12.9866 16.4973 13.0066C16.9131 13.0265 17.3065 13.1968 17.6008 13.4844C17.8952 13.7719 18.0696 14.1561 18.09 14.5622C18.1104 14.9684 17.9754 15.3674 17.7113 15.6817L15.5582 17.7645L17.7113 19.8474ZM21.5 33.9419C21.0086 33.9419 20.5283 33.7995 20.1198 33.5329C19.7112 33.2663 19.3928 32.8873 19.2047 32.4439C19.0167 32.0005 18.9675 31.5126 19.0634 31.0419C19.1592 30.5711 19.3958 30.1388 19.7433 29.7994C20.0907 29.46 20.5334 29.2289 21.0153 29.1353C21.4973 29.0417 21.9968 29.0897 22.4507 29.2734C22.9047 29.457 23.2927 29.7681 23.5657 30.1671C23.8387 30.5662 23.9844 31.0353 23.9844 31.5153C23.9844 32.1588 23.7226 32.7761 23.2567 33.2311C22.7908 33.6862 22.1589 33.9419 21.5 33.9419ZM34.2738 19.8474C34.5848 20.1541 34.7593 20.5683 34.7593 21C34.7593 21.4317 34.5848 21.8459 34.2738 22.1526C33.9573 22.4516 33.5341 22.6188 33.0938 22.6188C32.6534 22.6188 32.2303 22.4516 31.9137 22.1526L29.7813 20.0496L27.6488 22.1526C27.3323 22.4516 26.9091 22.6188 26.4688 22.6188C26.0284 22.6188 25.6053 22.4516 25.2887 22.1526C24.9777 21.8459 24.8032 21.4317 24.8032 21C24.8032 20.5683 24.9777 20.1541 25.2887 19.8474L27.4418 17.7645L25.2887 15.6817C25.0246 15.3674 24.8896 14.9684 24.91 14.5622C24.9304 14.1561 25.1048 13.7719 25.3992 13.4844C25.6935 13.1968 26.0869 13.0265 26.5027 13.0066C26.9185 12.9866 27.327 13.1185 27.6488 13.3764L29.7813 15.4795L31.9137 13.3764C32.2355 13.1185 32.644 12.9866 33.0598 13.0066C33.4756 13.0265 33.869 13.1968 34.1633 13.4844C34.4577 13.7719 34.6321 14.1561 34.6525 14.5622C34.6729 14.9684 34.5379 15.3674 34.2738 15.6817L32.1207 17.7645L34.2738 19.8474Z" fill="url(#paint0_linear_832_9691)"/>
</g>
<defs>
<linearGradient id="paint0_linear_832_9691" x1="21.5" y1="-0.0305176" x2="21.5" y2="42.0305" gradientUnits="userSpaceOnUse">
<stop stop-color="#A863FF"/>
<stop offset="1" stop-color="#7A1FEE"/>
</linearGradient>
<clipPath id="clip0_832_9691">
<rect width="43" height="42" fill="white"/>
</clipPath>
</defs>
</svg>
