<svg width="22" height="22" viewBox="0 0 22 22" fill="none" xmlns="http://www.w3.org/2000/svg">
<path d="M18.25 10V4C18.25 2.9 17.35 2 16.25 2H15.25V0H13.25V2H5.25V0H3.25V2H2.25C1.15 2 0.25 2.9 0.25 4V18C0.25 19.1 1.15 20 2.25 20H9.25V18H2.25V8H16.25V10H18.25ZM16.25 6H2.25V4H16.25V6ZM12.89 18C13.32 19.45 14.66 20.5 16.25 20.5C18.18 20.5 19.75 18.93 19.75 17C19.75 15.07 18.18 13.5 16.25 13.5C15.3 13.5 14.43 13.88 13.8 14.5H15.25V16H11.25V12H12.75V13.43C13.65 12.55 14.89 12 16.25 12C19.01 12 21.25 14.24 21.25 17C21.25 19.76 19.01 22 16.25 22C13.83 22 11.81 20.28 11.35 18H12.89Z" fill="#7D7D7D"/>
</svg>
