<svg width="56" height="56" viewBox="0 0 56 56" fill="none" xmlns="http://www.w3.org/2000/svg">
<rect width="56" height="56" rx="28" fill="#FEFEFE"/>
<path d="M28.4003 25.0122C29.1461 25.0122 29.74 24.4183 29.74 23.6587C29.74 23.2858 29.6018 22.9819 29.3532 22.7333L25.5965 19.0042C26.3147 18.8799 27.1434 18.8109 28.0412 18.8109C33.3585 18.8109 37.5986 23.0648 37.5986 28.4374C37.5986 33.7686 33.3309 38.0501 27.9997 38.0501C22.6823 38.0501 18.4008 33.7686 18.4008 28.4374C18.4008 27.6087 17.8622 27.0148 17.0611 27.0148C16.2324 27.0148 15.6523 27.6087 15.6523 28.4374C15.6523 35.2879 21.1631 40.7986 27.9997 40.7986C34.8502 40.7986 40.3471 35.2879 40.3471 28.4374C40.3471 21.587 34.8778 16.1177 28.0412 16.1177C27.392 16.1177 26.7291 16.1729 26.0661 16.2696L29.367 13.0377C29.6018 12.7753 29.74 12.4715 29.74 12.0985C29.74 11.3389 29.1599 10.7174 28.4003 10.7174C27.9997 10.7174 27.6821 10.8555 27.4335 11.1317L21.7708 16.8911C21.4807 17.1673 21.3426 17.5264 21.3426 17.8993C21.3426 18.286 21.4669 18.6175 21.7708 18.9214L27.4473 24.6255C27.6821 24.8879 27.9997 25.0122 28.4003 25.0122Z" fill="#070807"/>
</svg>
