<svg width="45" height="44" viewBox="0 0 45 44" fill="none" xmlns="http://www.w3.org/2000/svg">
<rect x="0.5" width="44" height="44" rx="22" fill="#F4F4F4"/>
<path d="M31.5282 24.0899C31.4799 23.9341 31.3826 23.7981 31.2509 23.7018C31.1192 23.6056 30.96 23.5543 30.7969 23.5556L30.5907 23.5931C29.2479 23.9637 27.8308 23.9715 26.4839 23.6157C25.1371 23.2599 23.9088 22.5532 22.9243 21.5677C21.9397 20.5822 21.2342 19.3532 20.8797 18.006C20.5252 16.6589 20.5344 15.2418 20.9063 13.8993C20.9247 13.8449 20.9342 13.788 20.9344 13.7306C20.9433 13.6096 20.9224 13.4883 20.8734 13.3773C20.8245 13.2663 20.749 13.169 20.6536 13.094C20.5583 13.019 20.4459 12.9686 20.3265 12.9472C20.2071 12.9258 20.0843 12.934 19.9688 12.9712C18.3927 13.413 16.9597 14.2597 15.8124 15.4272C14.6651 16.5946 13.8435 18.0422 13.4292 19.6257C13.015 21.2093 13.0226 22.8737 13.4512 24.4535C13.8799 26.0332 14.7147 27.4732 15.8726 28.6301C17.0305 29.7871 18.4711 30.6207 20.0512 31.0481C21.6313 31.4755 23.2957 31.4817 24.879 31.0662C26.4622 30.6507 27.909 29.8278 29.0756 28.6796C30.2421 27.5313 31.0877 26.0977 31.5282 24.5212C31.5753 24.3813 31.5753 24.2298 31.5282 24.0899Z" fill="#7D7D7D"/>
</svg>
