<svg width="22" height="22" viewBox="0 0 22 22" fill="none" xmlns="http://www.w3.org/2000/svg">
<path d="M7.75 13.75C8.44036 13.75 9 13.1904 9 12.5C9 11.8096 8.44036 11.25 7.75 11.25C7.05964 11.25 6.5 11.8096 6.5 12.5C6.5 13.1904 7.05964 13.75 7.75 13.75Z" fill="#355449"/>
<path d="M19.52 8.08L18.6 10.09C18.69 10.55 18.75 11.02 18.75 11.5C18.75 15.91 15.16 19.5 10.75 19.5C6.34 19.5 2.75 15.91 2.75 11.5C2.75 11.45 2.76 11.4 2.75 11.36C5.35 10.38 7.44 8.37 8.49 5.81C10.33 8.06 13.12 9.5 16.25 9.5C16.7 9.5 17.14 9.46 17.58 9.4L16.98 8.08L16.1 6.15L11.38 4L14.17 2.73L14.88 2.41C13.62 1.83 12.22 1.5 10.75 1.5C5.23 1.5 0.75 5.98 0.75 11.5C0.75 17.02 5.23 21.5 10.75 21.5C16.27 21.5 20.75 17.02 20.75 11.5C20.75 10.03 20.42 8.63 19.85 7.37L19.52 8.08Z" fill="#355449"/>
<path d="M13.75 13.75C14.4404 13.75 15 13.1904 15 12.5C15 11.8096 14.4404 11.25 13.75 11.25C13.0596 11.25 12.5 11.8096 12.5 12.5C12.5 13.1904 13.0596 13.75 13.75 13.75Z" fill="#355449"/>
<path d="M19.35 5.1L18.25 7.5L17.15 5.1L14.75 4L17.15 2.9L18.25 0.5L19.35 2.9L21.75 4L19.35 5.1Z" fill="#355449"/>
</svg>
