<svg width="21" height="20" viewBox="0 0 21 20" fill="none" xmlns="http://www.w3.org/2000/svg">
<path d="M10.25 0C4.73 0 0.25 4.48 0.25 10C0.25 15.52 4.73 20 10.25 20C15.77 20 20.25 15.52 20.25 10C20.25 4.48 15.77 0 10.25 0ZM5.32 16.28C5.75 15.38 8.37 14.5 10.25 14.5C12.13 14.5 14.76 15.38 15.18 16.28C13.82 17.36 12.11 18 10.25 18C8.39 18 6.68 17.36 5.32 16.28ZM16.61 14.83C15.18 13.09 11.71 12.5 10.25 12.5C8.79 12.5 5.32 13.09 3.89 14.83C2.87 13.49 2.25 11.82 2.25 10C2.25 5.59 5.84 2 10.25 2C14.66 2 18.25 5.59 18.25 10C18.25 11.82 17.63 13.49 16.61 14.83ZM10.25 4C8.31 4 6.75 5.56 6.75 7.5C6.75 9.44 8.31 11 10.25 11C12.19 11 13.75 9.44 13.75 7.5C13.75 5.56 12.19 4 10.25 4ZM10.25 9C9.42 9 8.75 8.33 8.75 7.5C8.75 6.67 9.42 6 10.25 6C11.08 6 11.75 6.67 11.75 7.5C11.75 8.33 11.08 9 10.25 9Z" fill="#7D7D7D"/>
</svg>
