<svg width="22" height="18" viewBox="0 0 22 18" fill="none" xmlns="http://www.w3.org/2000/svg">
<path d="M20.7313 13.0031C20.6626 12.9237 20.5777 12.86 20.4823 12.8163C20.3868 12.7726 20.2831 12.75 20.1781 12.75H19.25V3C19.2475 2.20511 18.9307 1.44349 18.3686 0.881411C17.8065 0.319337 17.0449 0.00247246 16.25 0H3.50002C2.70513 0.00247246 1.9435 0.319337 1.38143 0.881411C0.819352 1.44349 0.502488 2.20511 0.500015 3C0.497632 3.73832 0.771901 4.45075 1.26877 4.99688C1.33315 5.07051 1.41149 5.13066 1.49925 5.17385C1.58702 5.21704 1.68246 5.24242 1.78009 5.24852C1.87771 5.25462 1.97558 5.24132 2.06804 5.20939C2.16049 5.17747 2.24571 5.12754 2.31877 5.0625C2.39269 4.99729 2.45304 4.91814 2.49636 4.82959C2.53967 4.74103 2.5651 4.64481 2.5712 4.54642C2.57729 4.44803 2.56393 4.3494 2.53188 4.25618C2.49982 4.16295 2.44971 4.07696 2.38439 4.00312C2.22177 3.82219 2.1056 3.60441 2.04589 3.36857C1.98618 3.13273 1.98474 2.88591 2.04167 2.64939C2.09861 2.41286 2.21222 2.19374 2.37271 2.01091C2.5332 1.82807 2.73575 1.68702 2.96289 1.5999C3.19004 1.51279 3.43497 1.48223 3.67655 1.51086C3.91814 1.5395 4.14914 1.62646 4.34963 1.76426C4.55013 1.90205 4.71409 2.08654 4.8274 2.30183C4.9407 2.51711 4.99994 2.75672 5.00001 3V15C5.00249 15.7949 5.31935 16.5565 5.88143 17.1186C6.4435 17.6807 7.20513 17.9975 8.00002 18H18.5C19.2949 17.9975 20.0565 17.6807 20.6186 17.1186C21.1807 16.5565 21.4975 15.7949 21.5 15C21.5024 14.2617 21.2281 13.5492 20.7313 13.0031ZM9.50002 6H15.5C15.6989 6 15.8897 6.07902 16.0303 6.21967C16.171 6.36032 16.25 6.55109 16.25 6.75C16.25 6.94891 16.171 7.13968 16.0303 7.28033C15.8897 7.42098 15.6989 7.5 15.5 7.5H9.50002C9.3011 7.5 9.11034 7.42098 8.96969 7.28033C8.82903 7.13968 8.75002 6.94891 8.75002 6.75C8.75002 6.55109 8.82903 6.36032 8.96969 6.21967C9.11034 6.07902 9.3011 6 9.50002 6ZM8.75002 9.75C8.75002 9.55109 8.82903 9.36032 8.96969 9.21967C9.11034 9.07902 9.3011 9 9.50002 9H15.5C15.6989 9 15.8897 9.07902 16.0303 9.21967C16.171 9.36032 16.25 9.55109 16.25 9.75C16.25 9.94891 16.171 10.1397 16.0303 10.2803C15.8897 10.421 15.6989 10.5 15.5 10.5H9.50002C9.3011 10.5 9.11034 10.421 8.96969 10.2803C8.82903 10.1397 8.75002 9.94891 8.75002 9.75ZM18.5 16.5H10.5969C10.8598 16.0437 10.9988 15.5266 11 15C11.0018 14.747 10.9702 14.4948 10.9063 14.25H19.8031C19.932 14.4788 19.9989 14.7372 19.9973 14.9998C19.9958 15.2623 19.9257 15.5199 19.7941 15.7471C19.6625 15.9743 19.4739 16.1633 19.247 16.2953C19.02 16.4274 18.7626 16.4979 18.5 16.5Z" fill="#355449"/>
</svg>
