<svg width="33" height="32" viewBox="0 0 33 32" fill="none" xmlns="http://www.w3.org/2000/svg">
<rect x="0.5" width="32" height="32" rx="8" fill="#355449"/>
<path d="M13.5 15.75C12.81 15.75 12.25 16.31 12.25 17C12.25 17.69 12.81 18.25 13.5 18.25C14.19 18.25 14.75 17.69 14.75 17C14.75 16.31 14.19 15.75 13.5 15.75ZM19.5 15.75C18.81 15.75 18.25 16.31 18.25 17C18.25 17.69 18.81 18.25 19.5 18.25C20.19 18.25 20.75 17.69 20.75 17C20.75 16.31 20.19 15.75 19.5 15.75ZM16.5 6C10.98 6 6.5 10.48 6.5 16C6.5 21.52 10.98 26 16.5 26C22.02 26 26.5 21.52 26.5 16C26.5 10.48 22.02 6 16.5 6ZM16.5 24C12.09 24 8.5 20.41 8.5 16C8.5 15.71 8.52 15.42 8.55 15.14C10.91 14.09 12.78 12.16 13.76 9.77C15.57 12.33 18.55 14 21.92 14C22.7 14 23.45 13.91 24.17 13.74C24.38 14.45 24.5 15.21 24.5 16C24.5 20.41 20.91 24 16.5 24Z" fill="#FEFEFE"/>
</svg>
