<svg width="56" height="56" viewBox="0 0 56 56" fill="none" xmlns="http://www.w3.org/2000/svg">
<rect width="56" height="56" rx="28" fill="#232423"/>
<path d="M28.4003 25.0121C29.1461 25.0121 29.74 24.4182 29.74 23.6586C29.74 23.2856 29.6018 22.9818 29.3532 22.7332L25.5965 19.0041C26.3147 18.8798 27.1434 18.8108 28.0412 18.8108C33.3585 18.8108 37.5986 23.0647 37.5986 28.4373C37.5986 33.7685 33.3309 38.05 27.9997 38.05C22.6823 38.05 18.4008 33.7685 18.4008 28.4373C18.4008 27.6086 17.8622 27.0147 17.0611 27.0147C16.2324 27.0147 15.6523 27.6086 15.6523 28.4373C15.6523 35.2877 21.1631 40.7985 27.9997 40.7985C34.8502 40.7985 40.3471 35.2877 40.3471 28.4373C40.3471 21.5868 34.8778 16.1175 28.0412 16.1175C27.392 16.1175 26.7291 16.1728 26.0661 16.2695L29.367 13.0376C29.6018 12.7752 29.74 12.4713 29.74 12.0984C29.74 11.3388 29.1599 10.7173 28.4003 10.7173C27.9997 10.7173 27.6821 10.8554 27.4335 11.1316L21.7708 16.891C21.4807 17.1672 21.3426 17.5263 21.3426 17.8992C21.3426 18.2859 21.4669 18.6174 21.7708 18.9212L27.4473 24.6253C27.6821 24.8878 27.9997 25.0121 28.4003 25.0121Z" fill="#7D7D7D"/>
</svg>
