<svg width="48" height="48" viewBox="0 0 48 48" fill="none" xmlns="http://www.w3.org/2000/svg">
<path d="M24 19.5117C24.3076 19.5205 24.5889 19.6348 24.8174 19.8809L31.4971 26.7188C31.6904 26.9121 31.7959 27.1582 31.7959 27.4482C31.7959 28.0283 31.3389 28.4941 30.7588 28.4941C30.4775 28.4941 30.2051 28.3799 30.0029 28.1777L24.0088 22.0166L17.9971 28.1777C17.7949 28.3711 17.5312 28.4941 17.2412 28.4941C16.6611 28.4941 16.2041 28.0283 16.2041 27.4482C16.2041 27.1582 16.3096 26.9121 16.5029 26.7188L23.1914 19.8809C23.4287 19.6348 23.6924 19.5117 24 19.5117Z" fill="#1C1C1E"/>
</svg>
