<svg width="18" height="19" viewBox="0 0 18 19" fill="none" xmlns="http://www.w3.org/2000/svg">
<path d="M6.75 17H13.5C14.1225 17 14.655 16.625 14.88 16.085L17.145 10.7975C17.2125 10.625 17.25 10.445 17.25 10.25V8.75C17.25 7.925 16.575 7.25 15.75 7.25H11.0175L11.73 3.8225L11.7525 3.5825C11.7525 3.275 11.625 2.99 11.4225 2.7875L10.6275 2L5.685 6.9425C5.415 7.2125 5.25 7.5875 5.25 8V15.5C5.25 16.325 5.925 17 6.75 17ZM6.75 8L10.005 4.745L9 8.75H15.75V10.25L13.5 15.5H6.75V8ZM0.75 8H3.75V17H0.75V8Z" fill="#355449"/>
</svg>
