<svg width="48" height="48" viewBox="0 0 48 48" fill="none" xmlns="http://www.w3.org/2000/svg">
<path d="M24 28.4883C24.3076 28.4795 24.5889 28.3652 24.8174 28.1191L31.4971 21.2812C31.6904 21.0879 31.7959 20.8418 31.7959 20.5518C31.7959 19.9717 31.3389 19.5059 30.7588 19.5059C30.4775 19.5059 30.2051 19.6201 30.0029 19.8223L24.0088 25.9834L17.9971 19.8223C17.7949 19.6289 17.5312 19.5059 17.2412 19.5059C16.6611 19.5059 16.2041 19.9717 16.2041 20.5518C16.2041 20.8418 16.3096 21.0879 16.5029 21.2812L23.1914 28.1191C23.4287 28.3652 23.6924 28.4883 24 28.4883Z" fill="#1C1C1E"/>
</svg>
