<svg width="26" height="26" viewBox="0 0 26 26" fill="none" xmlns="http://www.w3.org/2000/svg">
<path d="M20.5833 4.33329H19.5V2.16663H17.3333V4.33329H8.66667V2.16663H6.5V4.33329H5.41667C4.21417 4.33329 3.26083 5.30829 3.26083 6.49996L3.25 21.6666C3.25 22.8583 4.21417 23.8333 5.41667 23.8333H20.5833C21.775 23.8333 22.75 22.8583 22.75 21.6666V6.49996C22.75 5.30829 21.775 4.33329 20.5833 4.33329ZM20.5833 21.6666H5.41667V10.8333H20.5833V21.6666ZM9.75 15.1666H7.58333V13H9.75V15.1666ZM14.0833 15.1666H11.9167V13H14.0833V15.1666ZM18.4167 15.1666H16.25V13H18.4167V15.1666ZM9.75 19.5H7.58333V17.3333H9.75V19.5ZM14.0833 19.5H11.9167V17.3333H14.0833V19.5ZM18.4167 19.5H16.25V17.3333H18.4167V19.5Z" fill="#B6BBB9"/>
</svg>
