<svg width="22" height="20" viewBox="0 0 22 20" fill="none" xmlns="http://www.w3.org/2000/svg">
<path d="M18.5 14.5V4.00002C18.5012 3.7042 18.4439 3.41106 18.3313 3.13752C18.2186 2.86397 18.0529 2.61544 17.8438 2.40626C17.6346 2.19708 17.386 2.0314 17.1125 1.91876C16.839 1.80613 16.5458 1.74878 16.25 1.75002H3.5M9.5 7.75H15.5M9.5 10.75H15.5M1.82187 5.49982C1.579 5.22789 1.40585 4.90101 1.31733 4.54732C1.2288 4.19363 1.22756 3.82373 1.31369 3.46945C1.39983 3.11518 1.57077 2.78714 1.8118 2.51358C2.05283 2.24001 2.35673 2.02912 2.69734 1.89906C3.03795 1.76899 3.40507 1.72365 3.76709 1.76693C4.12911 1.81021 4.47519 1.94082 4.77554 2.14751C5.07589 2.3542 5.32151 2.63079 5.49126 2.95346C5.66101 3.27613 5.7498 3.63522 5.75 3.99982V15.9998C5.75019 16.3644 5.83899 16.7235 6.00874 17.0462C6.17849 17.3688 6.42411 17.6454 6.72446 17.8521C7.02481 18.0588 7.37089 18.1894 7.73291 18.2327C8.09493 18.276 8.46205 18.2306 8.80266 18.1006C9.14327 17.9705 9.44717 17.7596 9.6882 17.4861C9.92923 17.2125 10.1002 16.8845 10.1863 16.5302C10.2724 16.1759 10.2712 15.806 10.1827 15.4523C10.0941 15.0986 9.921 14.7717 9.67813 14.4998H20.1781C20.4678 14.8236 20.6574 15.2244 20.7243 15.6536C20.7911 16.0829 20.7323 16.5223 20.5548 16.9189C20.3774 17.3154 20.0889 17.6521 19.7243 17.8883C19.3596 18.1245 18.9344 18.25 18.5 18.2498H8" stroke="#7D7D7D" stroke-width="1.8" stroke-linecap="round" stroke-linejoin="round"/>
</svg>
