<svg width="44" height="44" viewBox="0 0 44 44" fill="none" xmlns="http://www.w3.org/2000/svg">
<rect width="44" height="44" rx="22" fill="#F0F0F0"/>
<path d="M23 15.25C24.1 15.25 25 14.35 25 13.25C25 12.15 24.1 11.25 23 11.25C21.9 11.25 21 12.15 21 13.25C21 14.35 21.9 15.25 23 15.25ZM19.3 18.65L16.5 32.75H18.6L20.4 24.75L22.5 26.75V32.75H24.5V25.25L22.4 23.25L23 20.25C24.3 21.75 26.3 22.75 28.5 22.75V20.75C26.6 20.75 25 19.75 24.2 18.35L23.2 16.75C22.8 16.15 22.2 15.75 21.5 15.75C21.2 15.75 21 15.85 20.7 15.85L15.5 18.05V22.75H17.5V19.35L19.3 18.65Z" fill="#355449"/>
</svg>
