<svg width="18" height="19" viewBox="0 0 18 19" fill="none" xmlns="http://www.w3.org/2000/svg">
<path d="M8.28627 16.4361L12.4338 12.2811C12.7113 12.0036 12.8688 11.6211 12.8688 11.2236V3.73108C12.8688 2.90608 12.1938 2.23108 11.3688 2.23108H4.62627C4.02627 2.23108 3.48627 2.59108 3.25377 3.13858L0.808767 8.84608C0.171267 10.3311 1.25877 11.9811 2.87127 11.9811H7.10877L6.39627 15.4161C6.32127 15.7911 6.43377 16.1736 6.70377 16.4436C7.14627 16.8786 7.85127 16.8786 8.28627 16.4361ZM15.8763 2.23108C15.0513 2.23108 14.3763 2.90608 14.3763 3.73108V9.73108C14.3763 10.5561 15.0513 11.2311 15.8763 11.2311C16.7013 11.2311 17.3763 10.5561 17.3763 9.73108V3.73108C17.3763 2.90608 16.7013 2.23108 15.8763 2.23108Z" fill="#355449"/>
</svg>
