<svg width="36" height="36" viewBox="0 0 36 36" fill="none" xmlns="http://www.w3.org/2000/svg">
<rect width="36" height="36" rx="18" fill="url(#paint0_linear_2058_33512)"/>
<g clip-path="url(#clip0_2058_33512)">
<path d="M24.8603 17.2344C24.8371 17.1337 24.7893 17.0402 24.7211 16.9625C24.6529 16.8848 24.5665 16.8252 24.4697 16.7891L19.9697 15.1016L21.1103 9.37503C21.1365 9.24238 21.1196 9.10482 21.0619 8.9825C21.0043 8.86018 20.909 8.75955 20.79 8.69534C20.6698 8.63142 20.5319 8.60901 20.3976 8.63162C20.2634 8.65423 20.1404 8.72058 20.0478 8.82034L11.2978 18.1953C11.2261 18.2697 11.1742 18.3609 11.1469 18.4606C11.1196 18.5602 11.1178 18.6651 11.1416 18.7657C11.166 18.8658 11.2143 18.9586 11.2823 19.0362C11.3503 19.1137 11.436 19.1737 11.5322 19.211L16.0322 20.8985L14.8916 26.625C14.8653 26.7577 14.8823 26.8952 14.9399 27.0176C14.9976 27.1399 15.0929 27.2405 15.2119 27.3047C15.3016 27.35 15.4005 27.374 15.5009 27.375C15.5858 27.3754 15.6699 27.3582 15.7479 27.3246C15.8258 27.291 15.896 27.2417 15.9541 27.1797L24.7041 17.8047C24.7758 17.7303 24.8276 17.6391 24.8549 17.5395C24.8822 17.4398 24.8841 17.3349 24.8603 17.2344Z" fill="white"/>
</g>
<defs>
<linearGradient id="paint0_linear_2058_33512" x1="18" y1="0" x2="18" y2="36" gradientUnits="userSpaceOnUse">
<stop stop-color="#355449"/>
<stop offset="1" stop-color="#1D352C"/>
</linearGradient>
<clipPath id="clip0_2058_33512">
<rect width="20" height="20" fill="white" transform="translate(8 8)"/>
</clipPath>
</defs>
</svg>
