<svg width="21" height="20" viewBox="0 0 21 20" fill="none" xmlns="http://www.w3.org/2000/svg">
<path d="M10.25 0C4.73 0 0.25 4.48 0.25 10C0.25 15.52 4.73 20 10.25 20C15.77 20 20.25 15.52 20.25 10C20.25 4.48 15.77 0 10.25 0ZM10.25 3C11.91 3 13.25 4.34 13.25 6C13.25 7.66 11.91 9 10.25 9C8.59 9 7.25 7.66 7.25 6C7.25 4.34 8.59 3 10.25 3ZM10.25 17.2C7.75 17.2 5.54 15.92 4.25 13.98C4.28 11.99 8.25 10.9 10.25 10.9C12.24 10.9 16.22 11.99 16.25 13.98C14.96 15.92 12.75 17.2 10.25 17.2Z" fill="#355449"/>
</svg>
