<svg width="32" height="32" viewBox="0 0 32 32" fill="none" xmlns="http://www.w3.org/2000/svg">
<rect width="32" height="32" rx="8" fill="url(#paint0_linear_832_6635)"/>
<path d="M25.2559 14.5C24.8459 14.5 24.5059 14.84 24.5059 15.25H22.9659C22.8159 13.88 22.2759 12.62 21.4459 11.6L22.5359 10.51L22.5459 10.52C22.8359 10.81 23.3159 10.81 23.6059 10.52C23.8959 10.23 23.8959 9.75 23.6059 9.46L22.5459 8.4C22.2559 8.11 21.7759 8.11 21.4859 8.4C21.1959 8.69 21.1959 9.16 21.4759 9.45L20.3859 10.54C19.3659 9.72 18.1159 9.18 16.7459 9.03V7.5H16.7559C17.1659 7.5 17.5059 7.16 17.5059 6.75C17.5059 6.34 17.1659 6 16.7559 6H15.2559C14.8459 6 14.5059 6.34 14.5059 6.75C14.5059 7.16 14.8359 7.49 15.2459 7.5V9.05C13.8759 9.19 12.6259 9.74 11.6059 10.56L10.5159 9.47L10.5259 9.46C10.8159 9.17 10.8159 8.69 10.5259 8.4C10.2359 8.11 9.75586 8.11 9.46586 8.4L8.40586 9.46C8.11586 9.75 8.11586 10.23 8.40586 10.52C8.69586 10.81 9.16586 10.81 9.45586 10.53L10.5459 11.62C9.72586 12.64 9.18586 13.88 9.04586 15.25H7.50586C7.50586 14.84 7.16586 14.5 6.75586 14.5C6.34586 14.5 6.00586 14.84 6.00586 15.25V16.75C6.00586 17.16 6.34586 17.5 6.75586 17.5C7.16586 17.5 7.50586 17.16 7.50586 16.75H9.04586C9.19586 18.12 9.73586 19.36 10.5459 20.38L9.45586 21.47C9.16586 21.18 8.69586 21.19 8.40586 21.48C8.11586 21.77 8.11586 22.25 8.40586 22.54L9.46586 23.6C9.75586 23.89 10.2359 23.89 10.5259 23.6C10.8159 23.31 10.8159 22.83 10.5259 22.54L10.5159 22.53L11.6059 21.44C12.6259 22.26 13.8659 22.8 15.2359 22.95V24.5C14.8259 24.51 14.4959 24.84 14.4959 25.25C14.4959 25.66 14.8359 26 15.2459 26H16.7459C17.1559 26 17.4959 25.66 17.4959 25.25C17.4959 24.84 17.1559 24.5 16.7459 24.5H16.7359V22.96C18.1059 22.82 19.3559 22.27 20.3759 21.45L21.4659 22.54C21.1759 22.83 21.1859 23.3 21.4759 23.59C21.7659 23.88 22.2459 23.88 22.5359 23.59L23.5959 22.53C23.8859 22.24 23.8859 21.76 23.5959 21.47C23.3059 21.18 22.8259 21.18 22.5359 21.47L22.5259 21.48L21.4359 20.39C22.2559 19.37 22.8059 18.12 22.9559 16.74H24.4959C24.4959 17.15 24.8359 17.49 25.2459 17.49C25.6559 17.49 25.9959 17.15 25.9959 16.74V15.24C26.0059 14.84 25.6659 14.5 25.2559 14.5ZM17.7559 12C18.3059 12 18.7559 12.45 18.7559 13C18.7559 13.55 18.3059 14 17.7559 14C17.2059 14 16.7559 13.55 16.7559 13C16.7559 12.45 17.2059 12 17.7559 12ZM16.0059 17C15.4559 17 15.0059 16.55 15.0059 16C15.0059 15.45 15.4559 15 16.0059 15C16.5559 15 17.0059 15.45 17.0059 16C17.0059 16.55 16.5559 17 16.0059 17ZM14.2559 12C14.8059 12 15.2559 12.45 15.2559 13C15.2559 13.55 14.8059 14 14.2559 14C13.7059 14 13.2559 13.55 13.2559 13C13.2559 12.45 13.7059 12 14.2559 12ZM12.5059 17C11.9559 17 11.5059 16.55 11.5059 16C11.5059 15.45 11.9559 15 12.5059 15C13.0559 15 13.5059 15.45 13.5059 16C13.5059 16.55 13.0559 17 12.5059 17ZM14.2559 20C13.7059 20 13.2559 19.55 13.2559 19C13.2559 18.45 13.7059 18 14.2559 18C14.8059 18 15.2559 18.45 15.2559 19C15.2559 19.55 14.8059 20 14.2559 20ZM17.7559 20C17.2059 20 16.7559 19.55 16.7559 19C16.7559 18.45 17.2059 18 17.7559 18C18.3059 18 18.7559 18.45 18.7559 19C18.7559 19.55 18.3059 20 17.7559 20ZM18.5059 16C18.5059 15.45 18.9559 15 19.5059 15C20.0559 15 20.5059 15.45 20.5059 16C20.5059 16.55 20.0559 17 19.5059 17C18.9559 17 18.5059 16.55 18.5059 16Z" fill="#FEFEFE"/>
<defs>
<linearGradient id="paint0_linear_832_6635" x1="16" y1="0" x2="16" y2="32" gradientUnits="userSpaceOnUse">
<stop stop-color="#FF6363"/>
<stop offset="1" stop-color="#C73B3B"/>
</linearGradient>
</defs>
</svg>
