<svg width="36" height="36" viewBox="0 0 36 36" fill="none" xmlns="http://www.w3.org/2000/svg">
<rect width="36" height="36" rx="18" fill="url(#paint0_linear_2058_33495)"/>
<g clip-path="url(#clip0_2058_33495)">
<path d="M18 9.875C16.393 9.875 14.8221 10.3515 13.486 11.2443C12.1498 12.1371 11.1084 13.406 10.4935 14.8907C9.87852 16.3753 9.71762 18.009 10.0311 19.5851C10.3446 21.1612 11.1185 22.6089 12.2548 23.7452C13.3911 24.8815 14.8388 25.6554 16.4149 25.9689C17.991 26.2824 19.6247 26.1215 21.1093 25.5065C22.594 24.8916 23.8629 23.8502 24.7557 22.514C25.6485 21.1779 26.125 19.607 26.125 18C26.1209 15.8464 25.2635 13.7822 23.7407 12.2593C22.2178 10.7365 20.1536 9.87913 18 9.875ZM15.1875 17.375C15.0021 17.375 14.8208 17.32 14.6667 17.217C14.5125 17.114 14.3923 16.9676 14.3214 16.7963C14.2504 16.625 14.2318 16.4365 14.268 16.2546C14.3042 16.0727 14.3935 15.9057 14.5246 15.7746C14.6557 15.6435 14.8227 15.5542 15.0046 15.518C15.1865 15.4818 15.375 15.5004 15.5463 15.5714C15.7176 15.6423 15.864 15.7625 15.967 15.9167C16.07 16.0708 16.125 16.2521 16.125 16.4375C16.125 16.6861 16.0262 16.9246 15.8504 17.1004C15.6746 17.2762 15.4361 17.375 15.1875 17.375ZM20.8125 17.375C20.6271 17.375 20.4458 17.32 20.2917 17.217C20.1375 17.114 20.0173 16.9676 19.9464 16.7963C19.8754 16.625 19.8568 16.4365 19.893 16.2546C19.9292 16.0727 20.0185 15.9057 20.1496 15.7746C20.2807 15.6435 20.4477 15.5542 20.6296 15.518C20.8115 15.4818 21 15.5004 21.1713 15.5714C21.3426 15.6423 21.489 15.7625 21.592 15.9167C21.695 16.0708 21.75 16.2521 21.75 16.4375C21.75 16.6861 21.6512 16.9246 21.4754 17.1004C21.2996 17.2762 21.0611 17.375 20.8125 17.375Z" fill="white"/>
</g>
<defs>
<linearGradient id="paint0_linear_2058_33495" x1="18" y1="0" x2="18" y2="36" gradientUnits="userSpaceOnUse">
<stop stop-color="#355449"/>
<stop offset="1" stop-color="#1D352C"/>
</linearGradient>
<clipPath id="clip0_2058_33495">
<rect width="20" height="20" fill="white" transform="translate(8 8)"/>
</clipPath>
</defs>
</svg>
