<svg width="36" height="36" viewBox="0 0 36 36" fill="none" xmlns="http://www.w3.org/2000/svg">
<rect width="36" height="36" rx="18" fill="url(#paint0_linear_2050_33462)"/>
<g clip-path="url(#clip0_2050_33462)">
<path d="M13.634 12.4505L12.134 10.9588L10.959 12.1338L12.4507 13.6255L13.634 12.4505ZM11.334 17.1672H8.83398V18.8338H11.334V17.1672ZM18.834 8.87549H17.1673V11.3338H18.834V8.87549ZM25.0423 12.1338L23.8673 10.9588L22.3757 12.4505L23.5507 13.6255L25.0423 12.1338ZM22.3673 23.5505L23.859 25.0505L25.034 23.8755L23.534 22.3838L22.3673 23.5505ZM24.6673 17.1672V18.8338H27.1673V17.1672H24.6673ZM18.0007 13.0005C15.2423 13.0005 13.0007 15.2422 13.0007 18.0005C13.0007 20.7588 15.2423 23.0005 18.0007 23.0005C20.759 23.0005 23.0007 20.7588 23.0007 18.0005C23.0007 15.2422 20.759 13.0005 18.0007 13.0005ZM17.1673 27.1255H18.834V24.6672H17.1673V27.1255ZM10.959 23.8672L12.134 25.0422L13.6257 23.5422L12.4507 22.3672L10.959 23.8672Z" fill="#FEFEFE"/>
</g>
<defs>
<linearGradient id="paint0_linear_2050_33462" x1="18" y1="0" x2="18" y2="36" gradientUnits="userSpaceOnUse">
<stop stop-color="#FFA15C"/>
<stop offset="1" stop-color="#F26906"/>
</linearGradient>
<clipPath id="clip0_2050_33462">
<rect width="20" height="20" fill="white" transform="translate(8 8)"/>
</clipPath>
</defs>
</svg>
