<svg width="18" height="19" viewBox="0 0 18 19" fill="none" xmlns="http://www.w3.org/2000/svg">
<path d="M9.7117 2.5639L5.5567 6.7189C5.2792 6.9964 5.1217 7.3789 5.1217 7.7764V15.2689C5.1217 16.0939 5.7967 16.7689 6.6217 16.7689H13.3717C13.9717 16.7689 14.5117 16.4089 14.7517 15.8614L17.1967 10.1539C17.8267 8.6689 16.7392 7.0189 15.1267 7.0189H10.8892L11.6017 3.5839C11.6767 3.2089 11.5642 2.8264 11.2942 2.5564C10.8517 2.1214 10.1467 2.1214 9.7117 2.5639ZM2.1217 16.7689C2.9467 16.7689 3.6217 16.0939 3.6217 15.2689V9.2689C3.6217 8.4439 2.9467 7.7689 2.1217 7.7689C1.2967 7.7689 0.621704 8.4439 0.621704 9.2689V15.2689C0.621704 16.0939 1.2967 16.7689 2.1217 16.7689Z" fill="#355449"/>
</svg>
