<svg width="44" height="44" viewBox="0 0 44 44" fill="none" xmlns="http://www.w3.org/2000/svg">
<rect width="44" height="44" rx="22" fill="#F0F0F0"/>
<path d="M22.9491 12.7524L17.4091 18.2924C17.0391 18.6624 16.8291 19.1724 16.8291 19.7024V29.6924C16.8291 30.7924 17.7291 31.6924 18.8291 31.6924H27.8291C28.6291 31.6924 29.3491 31.2124 29.6691 30.4824L32.9291 22.8724C33.7691 20.8924 32.3191 18.6924 30.1691 18.6924H24.5191L25.4691 14.1124C25.5691 13.6124 25.4191 13.1024 25.0591 12.7424C24.4691 12.1624 23.5291 12.1624 22.9491 12.7524ZM12.8291 31.6924C13.9291 31.6924 14.8291 30.7924 14.8291 29.6924V21.6924C14.8291 20.5924 13.9291 19.6924 12.8291 19.6924C11.7291 19.6924 10.8291 20.5924 10.8291 21.6924V29.6924C10.8291 30.7924 11.7291 31.6924 12.8291 31.6924Z" fill="#355449"/>
</svg>
