<svg width="26" height="26" viewBox="0 0 26 26" fill="none" xmlns="http://www.w3.org/2000/svg">
<path d="M19.5 18.4166H6.5V16.25H19.5V18.4166ZM19.5 14.0833H6.5V11.9166H19.5V14.0833ZM19.5 9.74996H6.5V7.58329H19.5V9.74996ZM3.25 23.8333L4.875 22.2083L6.5 23.8333L8.125 22.2083L9.75 23.8333L11.375 22.2083L13 23.8333L14.625 22.2083L16.25 23.8333L17.875 22.2083L19.5 23.8333L21.125 22.2083L22.75 23.8333V2.16663L21.125 3.79163L19.5 2.16663L17.875 3.79163L16.25 2.16663L14.625 3.79163L13 2.16663L11.375 3.79163L9.75 2.16663L8.125 3.79163L6.5 2.16663L4.875 3.79163L3.25 2.16663V23.8333Z" fill="#FEFEFE"/>
</svg>
