<svg width="10" height="16" viewBox="0 0 10 16" fill="none" xmlns="http://www.w3.org/2000/svg">
<path d="M2.75 14.375C2.75 14.1525 2.68402 13.935 2.5604 13.75C2.43679 13.565 2.26109 13.4208 2.05552 13.3356C1.84995 13.2505 1.62375 13.2282 1.40552 13.2716C1.1873 13.315 0.986839 13.4222 0.829505 13.5795C0.672171 13.7368 0.565025 13.9373 0.521617 14.1555C0.478209 14.3738 0.500487 14.6 0.585636 14.8055C0.670785 15.0111 0.814979 15.1868 0.999985 15.3104C1.18499 15.434 1.4025 15.5 1.625 15.5C1.92337 15.5 2.20952 15.3815 2.4205 15.1705C2.63147 14.9595 2.75 14.6734 2.75 14.375ZM8.375 13.25C8.59751 13.25 8.81501 13.316 9.00002 13.4396C9.18502 13.5632 9.32922 13.7389 9.41437 13.9445C9.49951 14.15 9.52179 14.3762 9.47839 14.5945C9.43498 14.8127 9.32783 15.0132 9.1705 15.1705C9.01316 15.3278 8.81271 15.435 8.59448 15.4784C8.37625 15.5218 8.15005 15.4995 7.94448 15.4144C7.73892 15.3292 7.56322 15.185 7.4396 15C7.31598 14.815 7.25 14.5975 7.25 14.375C7.25 14.0766 7.36853 13.7905 7.57951 13.5795C7.79049 13.3685 8.07663 13.25 8.375 13.25ZM1.625 9.125C1.4025 9.125 1.18499 9.05902 0.999985 8.9354C0.814979 8.81179 0.670785 8.63608 0.585636 8.43052C0.500487 8.22495 0.478209 7.99875 0.521617 7.78052C0.565025 7.56229 0.672171 7.36184 0.829505 7.2045C0.986839 7.04717 1.1873 6.94002 1.40552 6.89662C1.62375 6.85321 1.84995 6.87549 2.05552 6.96064C2.26109 7.04578 2.43679 7.18998 2.5604 7.37498C2.68402 7.55999 2.75 7.77749 2.75 8C2.75 8.29837 2.63147 8.58452 2.4205 8.79549C2.20952 9.00647 1.92337 9.125 1.625 9.125ZM8.375 9.125C8.1525 9.125 7.93499 9.05902 7.74999 8.9354C7.56498 8.81179 7.42079 8.63608 7.33564 8.43052C7.25049 8.22495 7.22821 7.99875 7.27162 7.78052C7.31503 7.56229 7.42217 7.36184 7.57951 7.2045C7.73684 7.04717 7.9373 6.94002 8.15553 6.89662C8.37375 6.85321 8.59995 6.87549 8.80552 6.96064C9.01109 7.04578 9.18679 7.18998 9.3104 7.37498C9.43402 7.55999 9.5 7.77749 9.5 8C9.5 8.29837 9.38148 8.58452 9.1705 8.79549C8.95952 9.00647 8.67337 9.125 8.375 9.125ZM1.625 2.75C1.4025 2.75 1.18499 2.68402 0.999985 2.5604C0.814979 2.43679 0.670785 2.26108 0.585636 2.05552C0.500487 1.84995 0.478209 1.62375 0.521617 1.40552C0.565025 1.18729 0.672171 0.986838 0.829505 0.829504C0.986839 0.672171 1.1873 0.565023 1.40552 0.521615C1.62375 0.478207 1.84995 0.500486 2.05552 0.585635C2.26109 0.670784 2.43679 0.814978 2.5604 0.999983C2.68402 1.18499 2.75 1.40249 2.75 1.625C2.75 1.92337 2.63147 2.20951 2.4205 2.42049C2.20952 2.63147 1.92337 2.75 1.625 2.75ZM8.375 2.75C8.1525 2.75 7.93499 2.68402 7.74999 2.5604C7.56498 2.43679 7.42079 2.26108 7.33564 2.05552C7.25049 1.84995 7.22821 1.62375 7.27162 1.40552C7.31503 1.18729 7.42217 0.986838 7.57951 0.829504C7.73684 0.672171 7.9373 0.565023 8.15553 0.521615C8.37375 0.478207 8.59995 0.500486 8.80552 0.585635C9.01109 0.670784 9.18679 0.814978 9.3104 0.999983C9.43402 1.18499 9.5 1.40249 9.5 1.625C9.5 1.92337 9.38148 2.20951 9.1705 2.42049C8.95952 2.63147 8.67337 2.75 8.375 2.75Z" fill="#7D7D7D"/>
</svg>
