<svg width="64" height="65" viewBox="0 0 64 65" fill="none" xmlns="http://www.w3.org/2000/svg">
<path d="M18.0265 14.74L13.2265 9.96665L9.4665 13.7267L14.2398 18.5L18.0265 14.74ZM10.6665 29.8333H2.6665V35.1667H10.6665V29.8333ZM34.6665 3.29999H29.3332V11.1667H34.6665V3.29999ZM54.5332 13.7267L50.7732 9.96665L45.9998 14.74L49.7598 18.5L54.5332 13.7267ZM45.9732 50.26L50.7465 55.06L54.5065 51.3L49.7065 46.5267L45.9732 50.26ZM53.3332 29.8333V35.1667H61.3332V29.8333H53.3332ZM31.9998 16.5C23.1732 16.5 15.9998 23.6733 15.9998 32.5C15.9998 41.3267 23.1732 48.5 31.9998 48.5C40.8265 48.5 47.9998 41.3267 47.9998 32.5C47.9998 23.6733 40.8265 16.5 31.9998 16.5ZM29.3332 61.7H34.6665V53.8333H29.3332V61.7ZM9.4665 51.2733L13.2265 55.0333L17.9998 50.2333L14.2398 46.4733L9.4665 51.2733Z" fill="white"/>
</svg>
