<svg width="43" height="42" viewBox="0 0 43 42" fill="none" xmlns="http://www.w3.org/2000/svg">
<g clip-path="url(#clip0_832_9679)">
<path d="M21.5 -0.0305176C17.3406 -0.0305176 13.2745 1.2029 9.81608 3.51376C6.35763 5.82463 3.6621 9.10915 2.07035 12.952C0.478595 16.7948 0.0621201 21.0233 0.873588 25.1029C1.68505 29.1824 3.68802 32.9297 6.62919 35.8708C9.57036 38.812 13.3176 40.815 17.3972 41.6264C21.4767 42.4379 25.7052 42.0214 29.548 40.4297C33.3909 38.8379 36.6754 36.1424 38.9863 32.6839C41.2971 29.2255 42.5305 25.1595 42.5305 21C42.5198 15.4256 40.3007 10.0827 36.359 6.14099C32.4174 2.19931 27.0744 -0.0198285 21.5 -0.0305176ZM28.7798 14.5291C29.2597 14.5291 29.7289 14.6714 30.128 14.938C30.527 15.2047 30.838 15.5837 31.0217 16.0271C31.2054 16.4705 31.2534 16.9584 31.1598 17.4291C31.0662 17.8998 30.835 18.3322 30.4957 18.6715C30.1563 19.0109 29.7239 19.242 29.2532 19.3356C28.7825 19.4293 28.2946 19.3812 27.8512 19.1976C27.4078 19.0139 27.0288 18.7029 26.7622 18.3038C26.4955 17.9048 26.3532 17.4356 26.3532 16.9557C26.3532 16.3121 26.6089 15.6949 27.0639 15.2398C27.519 14.7847 28.1362 14.5291 28.7798 14.5291ZM14.2202 14.5291C14.7002 14.5291 15.1693 14.6714 15.5684 14.938C15.9674 15.2047 16.2784 15.5837 16.4621 16.0271C16.6458 16.4705 16.6938 16.9584 16.6002 17.4291C16.5066 17.8998 16.2754 18.3322 15.9361 18.6715C15.5967 19.0109 15.1643 19.242 14.6936 19.3356C14.2229 19.4293 13.735 19.3812 13.2916 19.1976C12.8482 19.0139 12.4692 18.7029 12.2026 18.3038C11.9359 17.9048 11.7936 17.4356 11.7936 16.9557C11.7936 16.3121 12.0493 15.6949 12.5044 15.2398C12.9594 14.7847 13.5766 14.5291 14.2202 14.5291ZM30.7211 32.1017C30.4773 32.2494 30.1973 32.3264 29.9122 32.3241C29.628 32.3295 29.3477 32.257 29.1017 32.1144C28.8557 31.9718 28.6535 31.7646 28.5169 31.5153C27.8045 30.2852 26.7812 29.264 25.5496 28.5541C24.3181 27.8442 22.9215 27.4705 21.5 27.4705C20.0785 27.4705 18.682 27.8442 17.4504 28.5541C16.2188 29.264 15.1956 30.2852 14.4831 31.5153C14.3866 31.7164 14.2496 31.8954 14.0806 32.0411C13.9116 32.1867 13.7143 32.2958 13.5012 32.3616C13.288 32.4273 13.0635 32.4482 12.8418 32.423C12.6202 32.3979 12.4061 32.3271 12.2131 32.2152C12.0201 32.1033 11.8524 31.9527 11.7203 31.7729C11.5883 31.5931 11.495 31.3879 11.4461 31.1702C11.3972 30.9525 11.3938 30.7271 11.4362 30.5081C11.4787 30.2891 11.5659 30.0812 11.6925 29.8975C12.6863 28.1758 14.1159 26.746 15.8375 25.752C17.5591 24.7579 19.512 24.2346 21.5 24.2346C23.488 24.2346 25.4409 24.7579 27.1625 25.752C28.8841 26.746 30.3137 28.1758 31.3075 29.8975C31.5207 30.2679 31.5787 30.7076 31.4688 31.1205C31.359 31.5335 31.0901 31.8862 30.7211 32.1017Z" fill="url(#paint0_linear_832_9679)"/>
</g>
<defs>
<linearGradient id="paint0_linear_832_9679" x1="21.5" y1="-0.0305176" x2="21.5" y2="42.0305" gradientUnits="userSpaceOnUse">
<stop stop-color="#FF6363"/>
<stop offset="1" stop-color="#C73B3B"/>
</linearGradient>
<clipPath id="clip0_832_9679">
<rect width="42" height="42" fill="white" transform="translate(0.5)"/>
</clipPath>
</defs>
</svg>
