<svg width="32" height="32" viewBox="0 0 32 32" fill="none" xmlns="http://www.w3.org/2000/svg">
<rect width="32" height="32" rx="8" fill="#CACACA"/>
<path d="M10.76 9.33999L8.96 7.54999L7.55 8.95999L9.34 10.75L10.76 9.33999ZM8 15H5V17H8V15ZM17 5.04999H15V7.99999H17V5.04999ZM24.45 8.95999L23.04 7.54999L21.25 9.33999L22.66 10.75L24.45 8.95999ZM21.24 22.66L23.03 24.46L24.44 23.05L22.64 21.26L21.24 22.66ZM24 15V17H27V15H24ZM16 9.99999C12.69 9.99999 10 12.69 10 16C10 19.31 12.69 22 16 22C19.31 22 22 19.31 22 16C22 12.69 19.31 9.99999 16 9.99999ZM15 26.95H17V24H15V26.95ZM7.55 23.04L8.96 24.45L10.75 22.65L9.34 21.24L7.55 23.04Z" fill="#7D7D7D"/>
</svg>
