<svg width="18" height="19" viewBox="0 0 18 19" fill="none" xmlns="http://www.w3.org/2000/svg">
<path d="M11.25 2H4.5C3.8775 2 3.345 2.375 3.12 2.915L0.855 8.2025C0.7875 8.375 0.75 8.555 0.75 8.75V10.25C0.75 11.075 1.425 11.75 2.25 11.75H6.9825L6.27 15.1775L6.2475 15.4175C6.2475 15.725 6.375 16.01 6.5775 16.2125L7.3725 17L12.315 12.0575C12.585 11.7875 12.75 11.4125 12.75 11V3.5C12.75 2.675 12.075 2 11.25 2ZM11.25 11L7.995 14.255L9 10.25H2.25V8.75L4.5 3.5H11.25V11ZM14.25 2H17.25V11H14.25V2Z" fill="#355449"/>
</svg>
