<svg width="36" height="36" viewBox="0 0 36 36" fill="none" xmlns="http://www.w3.org/2000/svg">
<rect width="36" height="36" rx="18" fill="url(#paint0_linear_2058_33480)"/>
<path d="M25.5204 19.7426C25.4801 19.6128 25.3991 19.4994 25.2894 19.4191C25.1796 19.3389 25.0469 19.2962 24.911 19.2973L24.7391 19.3285C23.6201 19.6374 22.4392 19.6439 21.3169 19.3474C20.1945 19.0509 19.1709 18.462 18.3505 17.6407C17.53 16.8195 16.9421 15.7953 16.6467 14.6727C16.3512 13.55 16.3589 12.3691 16.6688 11.2504C16.6841 11.2051 16.6921 11.1576 16.6923 11.1098C16.6997 11.009 16.6822 10.9079 16.6414 10.8154C16.6006 10.7229 16.5377 10.6418 16.4583 10.5793C16.3788 10.5168 16.2852 10.4748 16.1857 10.457C16.0862 10.4391 15.9838 10.446 15.8876 10.477C14.5741 10.8451 13.38 11.5507 12.4239 12.5236C11.4678 13.4965 10.7831 14.7028 10.4379 16.0224C10.0927 17.3421 10.099 18.7291 10.4563 20.0455C10.8135 21.362 11.5091 22.5619 12.4741 23.5261C13.439 24.4902 14.6395 25.1849 15.9562 25.5411C17.273 25.8972 18.66 25.9024 19.9794 25.5561C21.2987 25.2099 22.5044 24.5242 23.4766 23.5673C24.4487 22.6104 25.1533 21.4157 25.5204 20.102C25.5597 19.9854 25.5597 19.8592 25.5204 19.7426Z" fill="#FEFEFE"/>
<defs>
<linearGradient id="paint0_linear_2058_33480" x1="18" y1="0" x2="18" y2="36" gradientUnits="userSpaceOnUse">
<stop stop-color="#2D3D77"/>
<stop offset="1" stop-color="#0B1C57"/>
</linearGradient>
</defs>
</svg>
