<svg width="33" height="32" viewBox="0 0 33 32" fill="none" xmlns="http://www.w3.org/2000/svg">
<rect x="0.5" width="32" height="32" rx="8" fill="#355449"/>
<path d="M13.5553 18.1948C14.2457 18.1948 14.8053 17.6352 14.8053 16.9448C14.8053 16.2545 14.2457 15.6948 13.5553 15.6948C12.865 15.6948 12.3053 16.2545 12.3053 16.9448C12.3053 17.6352 12.865 18.1948 13.5553 18.1948Z" fill="#FEFEFE"/>
<path d="M22.0553 13.9448C22.8053 13.9448 23.5253 13.8548 24.2253 13.7048C24.4353 14.4148 24.5553 15.1648 24.5553 15.9448C24.5553 17.1648 24.2753 18.3148 23.7853 19.3448L25.2753 20.8348C26.0853 19.3848 26.5553 17.7248 26.5553 15.9448C26.5553 10.4248 22.0753 5.94482 16.5553 5.94482C14.7753 5.94482 13.1153 6.41482 11.6653 7.22482L16.9953 12.5548C18.4853 13.4348 20.2053 13.9448 22.0553 13.9448Z" fill="#FEFEFE"/>
<path d="M6.44531 7.66482L8.63531 9.85482C7.33531 11.5448 6.55531 13.6548 6.55531 15.9448C6.55531 21.4648 11.0353 25.9448 16.5553 25.9448C18.8453 25.9448 20.9553 25.1648 22.6453 23.8648L24.8353 26.0548L26.2453 24.6448L7.86531 6.25482L6.44531 7.66482ZM21.2153 22.4348C19.9053 23.3848 18.2953 23.9448 16.5553 23.9448C12.1453 23.9448 8.55531 20.3548 8.55531 15.9448C8.55531 15.8948 8.56531 15.8448 8.55531 15.8048C9.94531 15.2848 11.1853 14.4548 12.1953 13.4148L21.2153 22.4348Z" fill="#FEFEFE"/>
</svg>
